# xmcd CD database file
#
# Track frame offsets:
#	150
#	13660
#	26175
#	39135
#	52103
#	66126
#	77421
#	90411
#	108082
#	121968
#	138760
#	152513
#
# Disc length: 2285 seconds
#
# Revision: 0
# Processed by: cddbd v1.5.2PL0 Copyright (c) Steve Scherf et al.
# Submitted via: CDex 1.70beta2
#
DISCID=8608eb0c
DTITLE=Brent Lee Band - Lonesome Cowboy
DYEAR=2006
DGENRE=Country
TTITLE0=Your Heart Can Change Your Mind
TTITLE1=Breaking News
TTITLE2=Travellin' Man
TTITLE3=The Vegas Waltz
TTITLE4=Lonely Life
TTITLE5=Long Goodbyes
TTITLE6=Jambalaya
TTITLE7=My Memory
TTITLE8=Love Of My Life
TTITLE9=What Am I Gonna Do
TTITLE10=Angel From Above
TTITLE11=Lonesome Cowboy
EXTD=YEAR: 2006
EXTT0=
EXTT1=
EXTT2=
EXTT3=
EXTT4=
EXTT5=
EXTT6=
EXTT7=
EXTT8=
EXTT9=
EXTT10=
EXTT11=
PLAYORDER=
